<svg width="27" height="27" viewBox="0 0 27 27" fill="none" xmlns="http://www.w3.org/2000/svg">
<path d="M7.31148 6.17556C4.48303 8.23055 3.06881 9.25804 2.51337 10.7758C2.46881 10.8975 2.42873 11.0209 2.39322 11.1456C1.95047 12.6999 2.49066 14.3625 3.57102 17.6875C4.65139 21.0125 5.19158 22.675 6.4634 23.6723C6.56542 23.7523 6.67035 23.8285 6.77796 23.9009C7.23047 24.2049 7.72924 24.4064 8.32577 24.5399V19.8087C8.32577 17.0264 10.5813 14.7708 13.3636 14.7708C16.146 14.7708 18.4015 17.0264 18.4015 19.8087V24.5399C18.9981 24.4064 19.4968 24.2049 19.9493 23.9009C20.057 23.8285 20.1619 23.7523 20.2639 23.6723C21.5357 22.675 22.0759 21.0125 23.1563 17.6875C24.2367 14.3625 24.7768 12.6999 24.3341 11.1456C24.2986 11.0209 24.2585 10.8975 24.2139 10.7758C23.6585 9.25804 22.2443 8.23055 19.4158 6.17557C16.5874 4.12059 15.1732 3.09309 13.5581 3.03384C13.4285 3.02909 13.2988 3.02909 13.1692 3.03384C11.5541 3.09309 10.1399 4.12058 7.31148 6.17556Z" fill="#FAFAFA"/>
<path fill-rule="evenodd" clip-rule="evenodd" d="M16.8106 24.7443V19.8087C16.8106 17.905 15.2674 16.3617 13.3636 16.3617C11.4599 16.3617 9.91668 17.905 9.91668 19.8087V24.7443C10.8425 24.8023 11.9628 24.8023 13.3637 24.8023C14.7645 24.8023 15.8848 24.8023 16.8106 24.7443ZM14.1591 19.8087C14.1591 19.3694 13.803 19.0132 13.3636 19.0132C12.9243 19.0132 12.5682 19.3694 12.5682 19.8087V21.9299C12.5682 22.3692 12.9243 22.7254 13.3636 22.7254C13.803 22.7254 14.1591 22.3692 14.1591 21.9299V19.8087Z" fill="#FAFAFA"/>
</svg>
