<svg width="23" height="23" viewBox="0 0 23 23" fill="none" xmlns="http://www.w3.org/2000/svg">
<g id="Message 31">
<path id="Vector" fill-rule="evenodd" clip-rule="evenodd" d="M1.49616 15.9187C-1.22203 11.5202 0.987484 6.10066 3.54309 3.54505C7.93649 -0.84835 15.0596 -0.84835 19.453 3.54505C23.8464 7.93845 23.8464 15.0616 19.453 19.455C16.7886 22.1194 11.4678 24.2303 7.07883 21.5027C6.83578 21.3517 6.71423 21.2761 6.62148 21.2392C6.44467 21.1688 6.30892 21.1481 6.11917 21.1627C6.01964 21.1703 5.90719 21.1994 5.68234 21.2577C4.26732 21.6245 3.5597 21.8079 3.04999 21.7042C2.16532 21.5241 1.47393 20.8327 1.29389 19.9481C1.19016 19.4384 1.37353 18.7308 1.74029 17.3158C1.79858 17.091 1.82772 16.9785 1.83539 16.8793C1.85005 16.6895 1.82977 16.5553 1.75971 16.3784C1.72306 16.2859 1.64743 16.1635 1.49616 15.9187ZM11.6579 8.24636C12.1239 8.24636 12.5016 8.62412 12.5016 9.09011C12.5016 9.5561 12.1239 9.93386 11.6579 9.93386H7.1579C6.69191 9.93387 6.31415 9.55611 6.31415 9.09011C6.31415 8.62412 6.69191 8.24637 7.1579 8.24637L11.6579 8.24636ZM16.1579 12.7464C16.6239 12.7464 17.0016 13.1241 17.0016 13.5901C17.0016 14.0561 16.6239 14.4339 16.1579 14.4339H7.1579C6.69191 14.4339 6.31415 14.0561 6.31415 13.5901C6.31415 13.1241 6.69191 12.7464 7.1579 12.7464H16.1579Z" fill="#FAFAFA"/>
</g>
</svg>
