<svg width="35" height="36" viewBox="0 0 35 36" fill="none" xmlns="http://www.w3.org/2000/svg">
<path fill-rule="evenodd" clip-rule="evenodd" d="M7.69842 34.0168C12.3684 36.9876 18.1225 34.5727 20.8358 31.7796C25.5004 26.9778 25.5004 19.1927 20.8358 14.3909C16.1712 9.58918 8.60847 9.58918 3.94389 14.3909C1.11499 17.303 -1.12617 23.1183 1.76972 27.9152C1.93009 28.1809 2.01028 28.3137 2.0495 28.4151C2.12426 28.6083 2.14622 28.7567 2.13077 28.9641C2.12266 29.0729 2.09171 29.1958 2.02982 29.4416C1.64043 30.9881 1.44572 31.7614 1.55585 32.3185C1.74701 33.2854 2.48107 34.0411 3.42034 34.2378C3.96151 34.3512 4.7127 34.1508 6.21506 33.75C6.45377 33.6863 6.5732 33.6544 6.67855 33.646C6.88001 33.63 7.02248 33.6522 7.21034 33.7287C7.30859 33.7688 7.43854 33.8514 7.69842 34.0168ZM17.4108 21.7669C18.1184 21.7669 18.6921 22.3566 18.6921 23.0841C18.6921 23.8116 18.1184 24.4014 17.4108 24.4014L7.16082 24.4014C6.4532 24.4014 5.87957 23.8116 5.87957 23.0841C5.87957 22.3566 6.4532 21.7669 7.16082 21.7669L17.4108 21.7669Z" fill="#FAFAFA"/>
<path d="M6.17268 10.5253C11.2887 7.87856 17.6843 8.75316 21.9547 13.149C26.1193 17.4362 27.0304 23.8043 24.688 29.0019C25.0133 28.8397 25.3353 28.6581 25.6531 28.4559C25.9687 28.2551 26.1265 28.1547 26.2458 28.1061C26.4739 28.0131 26.6469 27.9862 26.8915 28.0057C27.0195 28.0158 27.1644 28.0545 27.4543 28.1318C29.2786 28.6186 30.1908 28.862 30.8479 28.7243C31.9885 28.4854 32.8798 27.5678 33.112 26.3937C33.2457 25.7173 33.0093 24.7783 32.5364 22.9003C32.4613 22.6018 32.4237 22.4526 32.4138 22.3204C32.3951 22.0686 32.4217 21.8885 32.5125 21.6538C32.5601 21.5307 32.6575 21.3694 32.8522 21.0469C36.3687 15.222 33.6473 8.16059 30.2122 4.62448C24.5481 -1.20621 15.3647 -1.20621 9.70058 4.62448C8.0346 6.33945 6.85863 8.36783 6.17268 10.5253Z" fill="#FAFAFA"/>
</svg>
