<svg width="19" height="20" viewBox="0 0 19 20" fill="none" xmlns="http://www.w3.org/2000/svg">
<g id="Send 2">
<g id="Vector">
<path d="M18.5965 5.75082C19.1567 2.82977 16.5922 0.265288 13.6711 0.825498L5.2845 2.43392C3.4614 2.78356 2.0034 4.16356 1.54019 5.95671C0.615353 9.53683 3.93555 12.8088 7.50056 11.7604C7.599 11.7315 7.69047 11.8229 7.66152 11.9214C6.61315 15.4864 9.88512 18.8066 13.4653 17.8818C15.2584 17.4186 16.6384 15.9606 16.9881 14.1375L18.5965 5.75082Z" fill="#FAFAFA"/>
<path d="M2.5325 13.9727C2.80098 13.7042 2.80098 13.2689 2.5325 13.0004C2.26401 12.7319 1.82871 12.7319 1.56023 13.0004L0.263864 14.2968C-0.00462134 14.5652 -0.00462139 15.0005 0.263864 15.269C0.532349 15.5375 0.96765 15.5375 1.23614 15.269L2.5325 13.9727Z" fill="#FAFAFA"/>
<path d="M5.7734 13.6486C6.04189 13.9171 6.04189 14.3524 5.7734 14.6209L4.47704 15.9172C4.20856 16.1857 3.77326 16.1857 3.50477 15.9172C3.23628 15.6487 3.23628 15.2134 3.50477 14.9449L4.80113 13.6486C5.06962 13.3801 5.50492 13.3801 5.7734 13.6486Z" fill="#FAFAFA"/>
<path d="M6.42159 17.8618C6.69007 17.5933 6.69007 17.158 6.42159 16.8895C6.1531 16.621 5.7178 16.621 5.44931 16.8895L4.15295 18.1858C3.88447 18.4543 3.88447 18.8896 4.15295 19.1581C4.42144 19.4266 4.85674 19.4266 5.12522 19.1581L6.42159 17.8618Z" fill="#FAFAFA"/>
</g>
</g>
</svg>
